P2
80 60
1118
197 202 192 171 179 171 184 256 233 189 220 192 210 225 210 217 207 212 233 217 210 212 225 194 207 179 194 192 169 205 199 174 202 194 202 207 192 189 164 169 151 189 197 184 197 187 184 187 161 169 164 197 182 169 176 182 176 179 187 171 194 253 415 564 616 562 579 557 576 569 557 557 569 557 559 542 566 564 576 569 
559 574 579 584 581 599 618 626 613 613 613 626 621 613 618 608 616 596 613 616 623 623 611 618 611 626 638 636 633 645 633 650 663 648 658 677 682 684 675 680 692 694 692 697 704 714 723 738 731 740 755 728 728 745 743 735 750 769 764 760 750 755 764 784 781 793 798 786 776 769 791 779 784 781 808 808 788 791 784 793 
187 194 176 171 187 148 184 223 223 217 225 215 210 210 235 207 197 215 228 207 225 212 207 189 176 182 202 184 189 225 197 179 192 205 207 220 192 182 187 161 171 169 169 153 192 161 174 174 171 164 169 179 194 174 158 176 158 174 158 164 189 240 402 569 564 576 586 576 574 589 549 544 566 564 552 554 554 571 576 574 
579 584 586 579 596 608 613 628 611 613 611 608 621 616 628 626 618 616 613 626 626 621 616 618 611 621 631 623 643 667 631 645 660 638 655 697 672 680 663 675 677 687 702 684 694 723 714 738 731 747 747 740 740 747 745 762 757 752 757 757 769 735 769 774 784 793 803 784 779 793 805 784 812 808 803 788 793 798 791 803 
189 212 151 151 169 122 194 187 207 223 225 194 207 205 197 189 202 202 230 202 210 194 192 184 205 184 194 207 192 182 199 194 197 207 199 202 184 179 176 169 148 156 153 151 176 179 158 171 176 171 161 171 169 164 151 174 161 161 161 169 176 233 397 571 604 584 599 579 579 566 539 574 559 554 559 557 564 569 584 574 
584 584 596 584 589 596 611 616 616 618 611 596 631 623 633 611 626 636 618 621 626 608 611 613 618 618 628 623 628 641 636 643 648 658 670 663 667 670 677 680 682 697 687 680 702 699 711 731 735 752 747 735 721 747 760 762 760 764 760 772 762 743 762 772 798 788 796 774 776 800 800 796 796 798 796 812 786 805 788 832 
207 197 171 132 158 148 187 233 223 207 210 228 217 220 210 215 220 228 223 205 202 194 189 187 164 182 202 215 215 194 192 189 210 207 187 192 169 199 179 194 135 143 166 153 184 187 169 171 156 158 161 153 169 156 158 169 169 161 174 169 189 248 395 586 594 586 586 584 581 581 569 576 566 557 562 559 564 576 581 574 
586 591 591 596 604 613 599 621 631 623 621 626 633 626 641 626 618 633 631 623 633 626 618 626 623 621 643 641 638 655 658 650 665 672 687 670 675 667 675 689 692 692 697 692 702 719 711 752 702 743 747 719 731 769 760 743 757 747 757 784 776 774 786 793 788 793 803 781 791 798 815 815 817 800 824 812 812 815 817 832 
197 184 138 156 143 158 189 228 225 230 225 210 248 223 212 212 212 235 230 202 197 205 207 182 184 189 225 220 230 197 199 189 194 202 184 199 179 189 174 169 169 140 158 158 166 171 179 194 164 151 158 143 161 169 166 156 140 161 171 171 174 256 405 586 616 586 601 594 586 581 549 569 557 571 566 566 581 574 581 581 
586 589 599 604 621 606 621 618 633 638 633 631 628 650 650 623 638 638 648 633 631 641 623 623 628 631 636 655 653 660 650 641 670 660 667 670 665 660 672 667 697 699 706 704 702 726 731 735 728 755 757 733 740 769 745 752 774 757 772 788 793 769 791 798 784 822 808 784 822 803 796 820 812 839 832 820 810 796 800 849 
194 156 158 117 130 132 210 256 238 223 228 205 194 215 217 220 230 240 238 202 182 187 210 182 189 202 207 212 202 197 197 182 205 202 182 189 166 212 166 156 169 169 161 166 143 169 143 176 158 153 145 153 143 143 151 138 169 164 138 182 187 240 420 594 621 596 589 584 591 586 564 559 557 562 564 562 569 579 584 581 
599 599 596 591 611 608 621 616 638 631 623 626 626 633 650 645 628 658 623 628 643 636 628 631 626 636 655 643 653 645 653 663 670 655 670 677 684 694 677 689 704 711 699 704 728 721 731 723 723 760 762 745 750 762 757 764 769 764 776 772 786 781 779 776 791 791 781 800 805 820 837 829 834 820 853 837 827 808 832 849 
174 151 156 132 130 156 187 248 233 228 223 225 220 225 212 210 217 223 233 197 199 205 199 176 212 199 207 220 187 182 202 182 197 194 199 187 179 171 176 145 156 151 169 161 148 158 132 143 182 148 148 151 148 153 130 145 171 153 161 156 182 220 413 608 628 613 591 599 579 599 562 581 564 569 564 571 576 579 584 581 
591 599 606 611 606 616 608 623 648 631 623 641 638 621 650 638 623 621 618 643 633 633 633 618 638 628 650 645 643 655 667 660 670 650 665 689 694 684 689 682 704 702 711 706 721 714 728 726 723 743 760 743 721 752 743 752 769 767 779 779 772 786 781 791 800 800 805 796 781 805 827 815 822 846 827 844 827 829 834 853 
174 153 138 135 132 151 187 212 248 205 212 212 210 202 210 210 233 230 225 215 210 199 205 202 192 171 194 212 192 182 189 192 192 176 194 197 189 184 151 158 138 166 156 166 148 135 120 143 140 127 109 122 145 145 127 151 164 153 161 145 192 243 420 599 628 618 613 586 611 589 566 584 557 576 579 571 586 589 596 581 
601 618 601 611 616 613 618 626 648 636 616 633 655 623 658 655 631 636 636 628 655 655 641 638 650 638 636 636 648 682 665 658 670 675 663 702 706 672 706 692 711 716 704 714 726 726 714 726 743 752 750 750 738 764 743 735 767 772 762 791 788 762 796 786 803 779 796 812 784 812 817 832 849 839 861 851 861 839 863 877 
169 161 158 148 120 153 171 199 202 228 217 228 215 225 230 210 212 217 225 217 199 205 210 205 202 199 161 207 166 194 158 184 189 176 182 171 176 169 179 153 125 130 132 135 145 130 114 135 125 120 107 138 132 135 117 140 156 122 143 140 161 233 402 608 621 596 608 608 589 604 574 591 574 571 586 566 589 584 601 599 
604 613 623 613 618 616 618 626 645 626 633 633 641 643 645 643 653 641 648 628 638 653 628 638 636 626 643 636 650 655 643 675 663 660 677 680 702 684 699 687 697 702 714 692 709 716 733 731 704 738 755 738 731 745 760 743 755 779 786 774 764 772 781 784 796 812 812 798 810 832 805 824 873 856 849 858 846 846 889 899 
156 166 158 164 151 166 174 199 217 197 207 202 197 212 197 205 199 199 230 210 202 217 207 215 179 161 153 164 158 164 169 166 197 158 176 169 148 184 151 153 112 122 130 107 122 101 96 125 125 114 109 86 112 107 99 135 125 135 140 143 164 215 400 604 641 604 606 608 591 591 594 586 584 591 574 571 591 579 596 589 
589 604 611 626 626 613 618 618 623 608 628 633 636 628 638 636 623 650 626 645 653 650 638 648 638 633 641 633 650 658 658 670 687 660 665 667 677 677 709 702 706 684 702 711 714 721 723 721 714 755 764 740 738 760 747 781 776 772 800 781 779 774 784 796 800 810 812 788 815 832 844 832 834 858 846 851 868 870 868 896 
164 156 161 132 179 171 182 197 197 187 197 199 187 194 210 187 199 199 187 207 169 192 223 192 207 148 130 145 148 132 143 158 176 166 158 161 143 166 169 145 132 117 122 120 122 109 99 109 96 94 88 107 99 94 96 122 130 135 135 148 176 202 408 608 633 616 623 596 599 601 571 591 562 591 559 584 584 584 586 589 
589 586 613 613 611 618 621 628 636 643 636 631 631 641 638 628 628 626 643 641 650 648 631 633 633 643 653 653 655 665 643 663 660 658 680 680 682 680 697 699 706 704 704 726 726 726 723 731 719 760 767 735 731 752 735 743 769 757 774 781 772 781 791 793 815 803 815 812 822 827 827 856 841 839 868 892 868 856 875 885 
164 171 171 164 182 179 199 210 192 207 212 207 187 184 184 189 187 189 207 174 197 187 207 197 207 158 114 120 143 120 143 143 158 171 166 158 179 189 166 158 101 83 109 120 107 91 68 94 83 99 91 99 112 112 81 125 120 101 145 143 166 199 402 599 638 631 616 611 589 611 584 589 586 596 576 574 579 591 596 591 
591 596 616 618 611 626 631 633 641 636 648 636 643 648 653 645 626 653 650 643 650 653 628 633 655 655 658 648 648 670 658 677 660 680 663 702 687 687 684 692 697 711 716 699 719 731 716 740 726 752 760 752 743 752 755 745 769 757 772 788 791 805 808 812 829 817 824 805 817 829 851 839 853 880 868 882 870 880 896 880 
158 164 169 158 176 192 199 212 205 197 205 192 158 179 184 164 192 192 187 205 171 161 184 179 187 153 120 114 148 127 109 112 148 140 148 179 171 171 140 171 91 96 101 120 104 83 73 83 81 88 73 83 109 104 81 91 104 120 140 135 153 197 392 599 643 604 616 613 599 604 574 604 591 584 574 576 571 594 601 601 
589 608 613 616 611 623 638 628 663 633 633 636 636 645 650 645 638 638 648 650 633 650 626 643 655 645 650 660 645 665 660 667 667 675 680 692 677 680 689 684 699 704 704 692 716 731 719 745 728 743 752 743 726 747 752 745 745 752 762 760 798 764 781 788 810 788 815 803 800 851 861 856 856 861 861 889 908 889 873 892 
156 182 187 169 192 189 184 207 192 205 205 184 187 179 194 169 187 164 169 171 182 174 182 176 169 145 104 120 132 114 96 104 127 125 148 153 174 161 148 143 99 94 91 78 117 83 73 86 68 96 81 91 83 109 73 104 94 117 125 125 145 192 405 628 667 641 626 616 601 611 594 604 604 589 581 571 596 606 611 616 
606 611 608 623 636 626 638 641 658 653 653 650 633 655 655 645 648 663 663 643 653 658 641 650 648 648 665 658 658 670 667 667 682 682 687 706 709 702 704 704 733 723 723 702 728 740 755 747 733 760 769 750 762 757 760 762 774 774 781 808 788 796 798 805 815 820 837 829 839 861 861 880 868 882 889 887 889 904 889 889 
166 179 184 174 174 161 225 199 217 215 194 158 192 153 176 169 164 164 179 182 174 187 176 156 171 145 122 122 127 120 94 104 104 127 112 127 132 135 145 140 75 94 78 86 73 73 78 88 73 81 62 83 91 81 86 75 94 86 114 109 140 194 380 616 667 631 641 628 618 616 604 596 599 591 579 584 594 606 606 599 
606 626 616 621 636 641 643 641 655 643 645 641 653 648 663 638 648 665 655 663 648 667 653 645 645 645 653 660 658 672 677 677 684 677 687 719 723 702 702 721 723 719 714 714 731 755 757 750 740 762 762 772 762 757 752 743 776 772 798 788 793 786 817 798 837 841 853 865 837 870 851 870 873 889 908 901 896 894 915 911 
153 169 194 169 187 217 205 199 202 189 187 171 171 164 179 153 158 164 187 184 174 166 164 158 171 117 125 138 122 96 75 83 75 91 86 120 96 125 120 91 99 81 109 86 88 65 60 88 78 70 68 86 78 68 62 78 75 75 86 88 120 179 382 604 650 641 626 613 621 621 601 604 604 601 581 576 591 616 596 606 
599 611 631 623 628 641 638 655 663 641 660 648 665 663 648 650 650 658 650 648 655 660 645 648 653 643 648 655 665 689 675 672 680 677 704 699 721 706 716 726 721 716 709 711 747 728 733 769 735 776 776 762 769 750 767 764 769 793 776 808 803 805 808 824 827 861 870 856 846 868 873 880 851 892 904 901 896 906 904 894 
107 135 156 145 207 205 205 189 187 158 148 161 184 158 171 174 164 158 202 176 166 138 161 169 166 122 114 107 109 112 107 88 83 57 73 99 52 73 78 94 57 81 83 65 86 52 70 70 47 68 78 91 73 55 52 83 86 73 86 81 99 158 380 604 682 643 641 628 623 628 606 616 616 596 591 569 586 608 618 611 
626 631 631 633 638 641 638 641 667 660 663 655 643 655 650 645 636 650 648 655 660 675 653 663 648 648 653 643 663 702 670 689 672 675 677 699 709 714 711 714 723 723 723 738 755 755 752 760 757 772 774 776 752 764 784 767 788 781 803 824 803 803 829 815 832 839 863 839 829 887 889 875 865 899 918 920 901 918 923 934 
114 120 143 179 169 197 194 205 184 174 169 174 161 164 182 164 174 179 187 161 166 153 164 161 158 117 145 127 120 117 122 75 99 81 73 130 65 62 55 62 62 68 55 91 75 88 73 73 62 47 39 70 52 55 52 52 73 70 75 70 107 174 382 611 655 663 653 611 626 636 601 628 604 616 599 601 599 606 606 611 
621 631 638 645 638 636 648 663 677 665 667 653 658 663 655 670 655 663 648 653 665 687 665 653 655 655 663 665 682 684 680 687 687 699 687 711 728 719 723 721 721 733 731 733 752 769 760 767 764 764 774 784 774 786 786 779 784 786 817 829 832 803 822 810 849 856 887 856 856 875 892 894 880 925 925 937 915 901 937 937 
81 122 158 153 187 184 207 202 199 174 169 182 164 156 182 156 169 182 174 169 158 158 161 161 156 120 138 130 120 127 99 96 81 104 91 88 70 65 44 49 47 49 81 44 49 37 60 49 42 42 37 55 37 37 37 55 73 83 94 83 120 169 372 611 665 665 660 645 643 643 608 613 599 628 613 608 618 618 626 613 
633 643 636 641 641 655 665 653 684 677 667 658 655 672 675 677 653 670 680 667 672 689 670 663 655 667 677 667 689 699 687 699 714 704 714 738 738 721 733 711 738 733 745 755 779 779 786 786 757 793 791 779 776 784 803 776 786 800 812 846 815 822 841 841 841 856 863 853 858 889 887 918 899 953 923 946 918 937 934 949 
86 107 96 148 184 164 189 197 171 176 189 176 153 148 156 151 176 158 179 169 145 171 176 169 145 109 122 125 138 104 112 75 75 86 75 65 62 65 52 65 37 37 49 37 39 39 34 34 29 34 31 39 37 47 34 47 44 57 78 65 112 161 377 594 665 658 645 641 648 653 599 618 589 613 599 616 611 616 623 618 
616 641 638 645 641 660 660 650 672 663 672 670 663 675 675 665 665 665 672 663 680 672 660 670 667 665 675 680 670 709 684 709 702 704 699 738 733 721 740 728 745 745 747 740 776 750 764 784 772 776 810 796 793 781 781 779 808 803 800 824 812 820 829 841 853 853 873 834 853 892 894 887 923 915 927 908 904 923 953 953 
96 99 101 143 164 176 182 194 179 174 202 179 156 145 164 153 158 187 169 151 143 151 148 135 135 96 127 99 117 101 114 86 109 78 73 99 44 42 55 49 62 70 60 31 47 13 34 39 42 18 13 37 47 39 49 52 70 60 60 83 117 171 349 608 687 648 667 650 655 672 623 626 643 628 601 596 618 616 618 631 
631 643 653 658 658 660 670 667 670 660 658 667 672 677 680 670 660 677 689 672 665 670 665 667 687 667 682 672 687 689 699 711 706 704 697 738 723 738 752 747 740 767 750 747 774 776 769 810 776 808 810 791 781 784 798 800 810 798 812 837 837 815 844 832 856 865 880 865 870 880 894 896 892 927 930 963 937 956 942 970 
68 83 130 138 205 199 179 207 189 187 176 197 151 143 176 138 171 182 169 140 140 132 135 138 122 120 109 109 114 101 101 91 94 91 65 73 68 47 42 29 26 24 52 26 39 34 49 47 31 18 13 39 37 39 44 60 75 101 86 96 122 189 380 660 709 697 687 665 658 653 641 641 618 641 606 618 638 631 626 623 
641 645 663 663 650 658 670 665 672 667 672 667 663 680 682 680 670 687 694 684 709 702 677 677 689 680 687 711 706 711 719 719 733 723 719 752 752 752 767 767 779 788 767 774 793 784 800 803 776 800 817 808 791 800 788 796 824 817 822 844 849 834 856 851 880 877 901 870 892 904 908 932 923 932 951 961 958 968 975 980 
68 83 135 130 135 179 192 192 179 174 176 194 184 130 174 143 164 151 130 148 122 135 130 132 135 112 109 120 135 132 145 96 117 125 101 109 101 81 70 49 52 55 42 16 24 18 13 24 21 24 13 49 65 39 47 42 88 94 94 109 114 174 357 633 716 692 684 672 658 650 638 636 626 633 623 621 631 653 663 631 
643 663 660 675 675 663 677 682 692 680 670 670 672 684 689 689 687 689 702 684 704 704 689 677 694 694 706 723 714 723 740 757 723 716 731 752 772 757 752 769 784 767 772 772 793 788 786 800 786 812 803 803 798 805 800 812 844 829 824 851 837 824 858 856 889 889 894 901 918 911 906 918 913 944 932 965 965 972 949 1010 
57 68 125 101 148 145 164 182 164 158 156 164 140 130 153 132 145 127 143 140 132 117 120 99 107 91 88 88 120 138 156 158 143 117 117 127 140 107 99 91 65 75 49 26 13 11 5 26 16 31 8 44 39 26 26 60 91 83 88 96 117 158 349 638 709 680 682 663 660 650 670 638 631 645 618 623 623 641 655 636 
645 660 665 667 665 665 694 689 680 667 687 687 680 677 689 677 687 680 719 689 694 692 687 684 697 694 699 714 699 721 716 738 743 714 738 762 767 738 779 757 779 762 769 762 784 781 798 805 793 817 808 812 784 796 808 808 827 832 827 846 839 822 856 861 865 894 889 873 896 930 901 930 956 934 949 946 934 975 996 1008 
73 70 109 83 138 153 151 153 148 143 151 156 125 117 151 151 140 145 138 120 120 120 114 104 104 94 91 73 112 125 132 138 140 138 120 132 120 140 120 145 107 88 34 16 34 29 11 42 37 39 21 42 44 55 57 62 78 88 86 99 143 176 354 638 709 711 684 682 665 653 660 645 648 638 631 643 643 648 650 650 
655 665 665 665 680 675 689 697 692 682 680 697 692 694 692 711 684 716 692 694 706 702 702 711 697 684 687 704 702 728 719 752 740 743 755 779 764 747 779 796 786 774 772 791 788 800 796 808 786 820 844 812 812 820 834 805 817 844 846 853 837 849 868 868 887 894 908 911 892 920 927 925 944 956 956 968 980 1020 1034 1008 
47 52 68 75 120 117 143 145 153 156 140 151 151 135 151 138 135 122 135 122 96 86 109 81 94 70 70 83 99 120 125 114 135 130 109 112 99 114 122 120 109 78 44 29 42 5 11 18 26 29 37 37 37 52 65 60 78 78 96 81 122 174 319 621 706 689 699 660 667 653 670 636 643 645 638 643 650 658 663 653 
665 677 672 672 682 675 699 699 702 694 697 704 692 699 702 702 697 719 694 692 706 704 709 702 684 672 689 697 709 731 726 740 735 735 757 772 764 755 750 760 774 784 791 772 793 779 798 810 786 832 841 839 812 822 827 827 822 844 865 849 856 856 868 858 889 901 906 894 899 908 918 942 942 944 965 1003 1006 1010 1048 1060 
34 49 81 86 112 109 117 145 156 143 143 138 145 135 153 158 114 114 114 88 94 88 78 70 68 73 57 83 109 112 132 127 107 104 117 125 114 109 107 117 107 88 49 21 52 24 0 26 34 49 34 49 34 49 44 75 91 78 96 99 127 184 339 638 709 716 714 687 694 667 658 655 641 645 633 636 648 655 667 663 
660 665 675 675 682 694 711 699 706 699 711 702 706 706 719 714 706 706 709 714 704 728 704 704 711 692 711 716 721 747 728 745 760 764 769 784 779 772 776 776 793 805 805 776 796 810 817 822 820 827 834 841 827 839 829 824 849 858 829 870 868 856 885 873 904 896 908 906 913 927 944 951 965 994 1010 1027 1032 1067 1057 1079 
39 21 52 75 120 107 145 151 153 145 156 132 135 117 145 120 125 112 86 96 81 68 60 49 49 47 57 88 101 101 114 125 125 135 117 112 112 122 96 125 104 73 52 18 57 39 44 26 34 31 18 47 68 55 31 86 81 83 86 94 107 197 316 643 723 726 723 699 687 677 687 645 665 653 636 658 655 650 670 665 
667 694 694 697 697 716 702 697 723 702 704 719 706 721 719 709 699 719 704 731 719 711 709 706 684 711 740 743 743 767 755 764 786 767 779 815 796 796 791 788 812 810 803 800 803 817 817 829 817 851 849 844 827 832 837 837 858 865 853 887 873 844 892 892 915 923 939 925 951 956 961 1003 996 1025 1041 1086 1062 1097 1081 1086 
26 44 83 78 91 101 145 143 179 151 151 145 135 114 151 130 112 91 94 44 60 86 60 57 78 24 34 78 120 114 122 107 114 130 135 117 104 127 99 96 88 86 44 13 39 26 24 31 31 37 34 49 60 49 57 96 78 94 99 91 138 176 327 636 738 762 747 702 709 687 694 672 653 655 655 655 672 680 692 667 
680 704 680 702 731 704 721 711 721 706 719 728 731 721 726 714 723 723 735 738 740 719 728 699 714 735 721 757 750 779 769 788 796 774 786 832 810 803 805 820 834 815 822 791 812 837 839 841 817 853 856 877 827 853 846 822 849 870 868 911 899 870 899 908 908 951 951 951 932 970 1015 1025 1050 1079 1086 1079 1097 1081 1069 1079 
8 52 81 86 73 132 122 145 148 143 148 135 117 107 156 127 120 91 86 60 65 49 24 8 31 24 60 78 104 94 112 96 114 109 117 104 112 114 88 86 86 78 55 44 81 18 16 37 24 26 26 47 44 47 62 75 65 65 83 78 120 184 316 631 779 757 726 702 716 692 704 667 665 672 672 663 667 682 689 689 
697 702 697 699 697 719 719 704 728 723 709 735 719 733 716 721 714 726 731 731 745 733 711 711 711 733 738 767 747 769 776 786 805 798 805 851 839 822 839 844 858 820 812 815 841 820 849 841 844 856 861 870 853 841 861 849 858 880 889 904 892 892 920 925 946 958 987 970 972 1006 1020 1055 1069 1093 1118 1067 1067 1081 1074 1076 


