P2
80 60
220
49 44 72 67 72 82 31 70 62 64 67 57 41 44 41 41 28 49 28 36 36 51 57 51 46 49 67 80 64 33 41 44 38 77 46 20 41 51 64 67 49 62 59 57 80 80 70 80 62 67 82 72 98 108 75 64 70 75 90 77 82 75 51 38 64 72 72 64 70 70 70 75 70 72 67 90 75 67 67 67 
88 64 72 82 90 88 88 82 90 88 88 98 80 88 62 59 77 103 67 67 80 88 82 82 98 72 77 75 90 95 98 103 103 108 90 75 111 98 85 90 93 118 93 95 85 95 67 108 93 108 88 108 131 134 118 100 88 88 98 88 105 121 134 100 98 121 105 113 80 103 93 116 103 100 113 113 93 136 152 118 
54 54 59 62 57 62 54 54 64 70 62 36 26 44 38 26 33 51 36 26 31 31 38 44 64 54 67 51 41 49 62 41 54 54 57 49 67 59 41 70 57 59 54 57 70 85 62 72 62 59 70 85 67 93 64 64 70 57 59 80 64 67 54 44 51 49 46 82 51 67 72 80 70 75 70 72 67 72 59 67 
88 72 70 59 85 72 77 75 77 70 70 75 46 72 67 57 80 70 72 64 67 90 77 64 64 77 70 70 85 90 85 85 93 98 72 72 108 100 72 70 90 95 77 75 70 85 82 75 100 95 88 82 93 116 103 85 93 116 95 98 100 88 95 85 103 93 93 113 103 98 98 100 90 80 95 111 100 134 108 146 
77 54 100 82 70 75 88 64 72 51 64 62 44 64 54 41 36 44 62 41 49 62 46 49 67 75 59 57 75 82 67 75 64 59 46 67 64 62 85 72 75 85 95 80 98 103 82 85 77 93 85 90 95 90 88 64 85 93 105 93 88 82 64 54 49 64 67 88 62 59 80 98 77 90 75 90 95 90 90 72 
100 72 88 72 90 98 85 103 67 70 93 67 59 77 70 72 77 85 90 93 95 77 75 57 85 82 67 95 90 82 93 93 95 105 113 85 108 77 95 88 98 95 95 105 80 93 108 98 118 123 100 108 129 121 123 103 105 113 88 118 77 72 108 93 118 113 105 93 100 111 129 98 108 105 123 103 113 134 136 121 
75 62 80 72 54 88 80 75 59 54 62 49 67 72 59 57 26 54 77 44 41 70 62 49 64 67 64 57 72 54 90 72 80 59 85 77 77 105 85 80 62 77 62 85 93 85 64 90 100 93 113 100 90 100 90 85 82 82 88 111 100 70 62 51 62 67 80 90 72 82 90 100 72 80 64 93 98 75 80 82 
90 72 90 82 88 88 95 77 82 59 75 70 77 93 93 62 70 85 77 95 77 85 75 67 82 98 75 88 90 95 85 77 90 88 88 88 80 95 90 88 88 80 90 80 95 82 103 105 98 98 116 88 108 123 113 113 111 126 88 95 88 95 90 111 123 116 105 93 100 111 105 108 131 90 108 103 98 134 126 152 
64 59 82 64 98 70 103 88 77 57 59 36 70 46 51 75 59 75 77 51 64 62 72 80 67 77 80 70 105 82 72 80 77 100 85 67 95 90 67 85 88 64 85 75 82 108 88 103 98 85 93 88 85 90 85 93 93 85 77 108 93 75 75 85 64 64 67 77 51 80 90 88 90 64 77 90 90 75 70 77 
85 67 77 75 80 90 70 82 77 82 85 75 62 93 82 85 67 70 88 57 80 75 82 82 98 72 82 77 80 75 88 77 93 75 90 80 75 95 111 85 82 80 93 93 90 90 111 82 111 100 98 95 113 100 100 98 95 126 98 90 90 116 100 111 111 111 103 121 108 113 95 123 111 100 108 111 93 93 113 136 
57 64 108 111 93 95 105 85 90 75 62 70 77 80 85 90 49 80 88 70 72 85 85 95 75 95 85 95 105 82 93 93 95 85 98 90 75 80 95 103 90 103 80 88 88 113 85 95 98 100 85 95 95 103 82 93 103 88 111 95 95 88 75 72 82 80 70 88 67 64 82 100 75 62 90 70 93 82 90 80 
103 72 75 105 95 77 77 80 75 82 98 70 59 72 82 75 98 93 67 80 75 95 85 93 80 80 75 82 80 100 82 80 95 80 95 77 85 98 88 88 82 88 108 105 93 103 103 90 103 103 105 103 123 141 113 113 131 108 90 113 105 118 118 121 113 98 118 113 111 105 111 111 100 111 108 118 103 93 136 121 
75 85 93 70 98 82 75 82 75 77 67 77 77 72 67 77 67 57 85 72 93 93 88 95 95 95 88 103 103 105 90 85 95 95 85 90 75 105 82 90 100 80 93 72 93 98 111 82 93 103 103 82 88 121 88 82 88 80 82 98 77 75 67 59 67 85 64 80 59 77 90 77 64 77 75 75 82 88 75 70 
85 64 75 77 82 72 59 75 85 77 80 77 54 93 70 80 82 67 95 85 98 64 103 82 85 82 67 75 72 75 98 85 98 85 90 75 85 82 85 98 67 98 108 88 100 85 85 95 108 85 95 108 139 123 108 108 118 108 116 105 113 123 121 108 100 105 118 105 108 100 113 113 116 98 113 103 93 118 118 134 
93 85 113 88 85 93 82 98 82 90 93 90 93 108 95 95 72 98 82 90 75 98 111 103 111 116 108 100 93 100 93 80 93 98 88 93 100 90 103 105 80 85 85 88 82 85 82 105 100 108 100 93 100 98 90 93 93 100 90 103 100 88 90 59 59 67 80 85 70 93 75 98 77 98 80 82 75 93 95 70 
70 62 88 95 72 64 75 82 85 82 75 77 59 82 82 72 64 85 90 80 90 98 90 85 75 72 59 85 88 82 93 82 105 85 98 82 103 75 85 88 105 64 85 100 103 85 103 98 108 116 103 95 108 121 136 103 100 85 85 108 93 103 108 123 105 105 90 111 116 123 105 121 129 103 103 121 108 121 100 118 
90 57 108 93 121 93 82 116 77 72 85 100 85 72 82 88 93 93 108 103 62 103 98 108 100 121 93 118 103 98 98 103 113 82 85 98 93 93 93 75 82 62 95 70 67 98 95 85 93 98 85 77 95 105 82 95 90 82 85 82 72 72 64 64 41 59 75 90 72 113 90 80 67 75 82 88 103 82 80 59 
64 72 77 90 85 72 72 90 70 54 75 75 59 85 67 62 77 75 67 88 72 80 100 82 90 77 67 93 75 93 80 80 100 90 82 93 90 85 90 72 93 88 98 90 90 90 75 103 100 93 77 95 105 108 123 90 98 95 105 82 90 103 95 105 111 118 85 93 105 113 85 105 111 95 118 103 98 118 141 118 
103 100 123 116 90 121 111 103 85 88 108 90 88 93 93 88 90 98 95 72 88 105 113 100 93 123 103 105 118 123 100 113 105 108 95 95 93 88 90 93 59 90 88 82 72 95 90 77 100 100 116 108 82 72 95 93 85 82 93 93 95 75 59 67 62 77 54 80 67 67 80 82 82 70 64 72 75 72 82 70 
64 67 64 77 82 67 77 77 67 59 75 85 64 75 72 62 80 80 72 72 82 105 103 88 70 59 67 75 62 67 72 93 80 88 85 82 93 75 90 98 82 98 90 75 93 88 88 93 90 103 100 90 103 103 111 108 126 113 93 90 93 113 111 98 118 85 90 105 103 113 100 118 139 80 108 111 113 129 108 123 
108 98 113 129 113 116 123 105 98 88 93 77 93 88 95 93 80 103 123 70 90 100 105 105 103 111 103 88 95 113 111 95 111 85 98 90 80 82 82 90 95 103 95 77 85 100 98 100 98 105 100 98 95 93 90 82 90 88 93 80 93 80 64 49 59 54 67 77 67 51 70 77 70 85 67 62 85 72 70 54 
85 70 80 72 75 70 64 88 80 64 64 82 70 90 75 80 77 75 67 67 98 77 88 62 77 62 57 80 95 77 85 95 103 93 98 95 77 82 70 90 88 90 82 72 85 98 85 90 100 100 93 98 88 113 113 105 121 105 105 105 105 100 95 111 105 105 100 98 100 100 108 108 80 98 113 108 103 149 139 103 
141 103 149 131 111 126 105 126 113 113 100 108 108 72 85 100 82 113 90 75 80 116 108 100 103 95 113 118 111 105 103 80 90 105 113 90 80 80 93 82 75 77 103 95 85 93 80 103 85 90 82 72 93 100 95 88 88 80 95 93 90 80 57 51 64 67 72 75 51 67 75 90 62 70 70 88 88 72 51 62 
72 67 88 70 82 93 62 82 82 80 62 64 62 85 80 72 62 49 62 77 103 90 95 72 72 75 59 85 57 88 82 85 90 98 67 72 82 93 77 82 90 95 88 93 103 90 90 85 72 75 98 90 100 123 123 108 108 100 103 98 103 85 93 98 98 105 103 90 98 111 123 105 103 90 129 95 103 126 146 126 
123 121 139 126 121 121 134 103 95 123 108 95 123 98 116 90 100 98 108 85 98 93 103 90 129 98 98 100 129 129 113 100 93 77 95 90 90 85 98 75 77 88 77 80 82 103 95 85 70 98 82 75 98 111 85 88 88 98 88 80 75 77 72 57 54 67 67 64 72 59 70 77 80 88 77 72 82 77 80 72 
85 54 77 72 75 75 62 72 82 64 75 54 59 77 85 72 62 57 72 62 80 95 67 77 64 72 80 75 82 75 59 77 82 85 88 82 80 82 70 82 75 90 80 82 88 77 88 82 75 88 95 100 108 134 108 123 93 98 118 100 90 111 103 108 108 105 72 93 90 105 121 123 118 80 103 93 131 116 118 134 
131 134 144 139 129 111 111 131 126 131 100 105 126 113 108 113 82 105 98 95 93 111 113 103 95 113 103 90 123 123 105 118 108 105 95 98 93 103 108 105 85 95 77 82 82 95 88 85 100 82 98 85 93 85 95 77 98 95 95 85 90 75 80 62 72 77 75 70 80 59 70 82 88 70 80 90 80 88 77 67 
93 59 75 82 77 75 64 75 80 80 70 72 64 82 70 57 80 67 70 88 70 95 70 98 85 75 75 82 80 90 67 77 100 80 103 85 85 100 95 90 90 88 85 77 82 88 98 82 75 105 90 98 100 121 108 90 111 95 105 103 103 113 121 103 111 95 105 85 108 118 134 118 116 98 134 113 103 126 139 123 
152 134 144 146 141 131 116 113 116 118 134 121 121 118 95 108 90 105 113 88 90 80 108 98 105 111 111 93 105 98 98 105 90 82 100 93 80 90 85 82 95 88 80 75 75 77 77 100 85 85 108 90 85 103 80 77 77 88 90 90 85 85 59 67 64 70 49 80 62 46 64 85 67 77 80 75 82 82 70 72 
59 57 85 70 67 62 64 72 80 64 67 70 72 64 59 77 59 57 80 54 75 67 77 90 93 77 70 77 64 77 98 77 93 82 80 88 88 82 82 88 64 85 82 90 67 75 93 88 93 75 88 98 90 105 95 98 116 90 98 111 88 118 77 108 105 100 121 108 105 100 100 121 100 82 121 121 103 131 108 118 
157 139 149 149 152 152 149 123 121 121 105 105 105 113 98 123 105 111 95 113 98 100 118 123 123 126 121 111 113 98 123 88 88 75 105 95 105 88 75 88 80 95 95 85 77 82 82 88 80 88 82 72 88 116 75 70 77 82 100 98 80 75 70 59 36 72 85 72 59 64 57 80 82 85 88 70 90 67 70 62 
72 62 77 67 77 75 62 67 77 70 67 57 72 70 57 75 77 49 64 51 75 70 88 93 100 77 72 77 82 72 88 82 77 85 88 72 85 85 77 90 77 95 80 64 72 93 82 90 118 100 90 88 85 113 95 105 105 116 95 103 95 111 113 111 105 108 103 82 90 111 95 113 105 118 121 113 105 116 157 144 
162 113 152 177 139 139 118 139 129 108 134 103 118 126 100 123 100 113 100 98 116 93 103 105 103 118 105 98 113 95 111 111 105 85 100 95 105 80 100 98 90 105 98 85 72 100 77 95 88 95 80 77 85 93 98 95 93 77 75 82 95 80 64 54 70 75 64 75 67 54 88 82 80 77 90 90 59 64 72 51 
67 67 67 70 72 67 67 70 82 57 77 57 62 67 59 57 64 57 62 72 77 70 67 80 80 51 62 70 64 75 80 75 100 80 72 93 72 80 93 88 85 100 75 82 82 90 93 82 90 105 82 95 105 105 105 88 93 103 103 111 77 111 100 100 95 100 82 108 90 98 105 116 111 108 108 95 108 116 123 136 
146 131 149 157 149 146 141 118 129 113 100 134 105 129 105 116 111 98 100 116 105 98 100 113 103 111 108 88 103 93 95 88 105 103 95 85 88 88 77 85 75 85 98 59 72 85 77 82 80 103 82 90 88 103 72 90 80 80 70 90 100 59 57 62 62 70 67 54 67 67 72 80 67 85 57 70 67 75 80 64 
72 49 64 70 80 59 67 62 59 62 70 57 57 64 51 59 80 54 57 54 72 75 80 88 67 54 70 59 64 95 95 88 82 80 80 67 75 75 80 98 85 82 77 88 98 77 70 88 93 82 93 88 103 93 85 108 98 95 82 100 93 100 95 105 103 98 75 108 108 90 98 93 100 80 108 116 80 118 108 131 
172 172 164 146 162 131 146 126 141 116 116 118 95 126 98 113 103 121 118 113 111 111 111 100 116 118 105 105 123 134 111 108 116 111 103 82 77 77 82 100 85 77 93 88 70 103 62 93 98 82 95 82 95 77 88 95 85 82 98 95 93 75 62 64 72 70 82 82 72 62 64 70 72 77 75 70 82 64 67 67 
75 54 59 75 64 82 62 72 67 67 57 72 75 70 82 51 57 59 75 82 77 93 88 88 90 77 93 67 64 80 75 72 88 90 82 75 88 98 67 95 113 93 82 88 82 103 72 100 85 100 100 103 82 108 123 108 111 105 113 105 93 118 108 116 118 100 100 77 111 98 116 98 98 111 108 134 126 136 116 121 
149 154 179 152 164 146 136 134 136 134 136 105 126 103 108 116 88 111 95 116 123 118 88 108 100 113 113 85 103 105 113 88 100 93 70 72 88 80 77 75 77 70 82 90 70 103 46 70 90 93 95 77 85 77 88 85 70 67 75 72 82 72 59 54 62 62 70 62 38 57 57 82 80 88 70 72 67 77 59 64 
82 62 59 80 72 75 67 77 70 62 72 46 67 72 82 54 70 49 51 59 80 70 57 82 72 82 75 85 70 82 62 64 90 77 64 59 70 70 82 82 88 77 85 88 72 82 103 98 93 67 95 100 88 105 93 98 100 90 98 88 105 95 95 85 77 105 85 77 77 113 111 105 93 72 108 93 105 105 129 118 
167 146 174 174 157 159 146 126 111 144 123 118 149 121 100 111 105 111 111 113 105 118 111 82 82 118 88 108 123 100 105 105 93 95 85 90 90 82 72 77 80 72 88 90 85 80 82 85 85 98 88 82 77 70 77 88 64 80 90 98 70 59 59 62 59 67 59 51 51 70 80 59 75 67 59 59 85 64 57 62 
59 70 67 67 67 72 64 59 70 51 51 54 49 57 70 64 64 59 70 57 85 80 67 67 67 54 72 77 67 70 75 75 90 72 67 67 72 70 80 82 72 62 82 64 72 77 88 75 105 103 95 90 111 105 95 103 111 98 85 105 88 98 95 85 98 111 90 90 88 116 103 93 113 93 116 111 121 100 103 93 
182 164 152 177 172 157 144 141 136 131 118 113 136 113 95 105 116 113 113 93 105 113 105 108 100 118 105 123 118 111 111 103 85 88 93 90 90 95 80 82 85 75 77 82 75 82 88 77 85 108 82 88 95 93 67 88 85 82 90 88 88 62 77 70 67 57 67 72 75 72 85 80 80 82 67 51 70 77 51 70 
57 59 72 88 77 80 59 59 67 62 75 62 72 59 59 57 64 57 59 51 70 75 70 77 75 64 70 85 75 75 77 77 98 70 70 70 75 72 75 67 67 100 75 75 67 75 80 98 85 100 88 93 111 129 95 123 108 95 82 103 90 90 98 108 103 105 98 98 105 98 105 126 134 111 116 118 103 105 113 121 
220 141 159 164 174 152 144 154 141 136 121 123 144 129 105 105 103 113 113 113 100 113 134 95 103 121 98 108 100 111 111 111 100 103 108 93 75 90 82 75 75 80 82 77 93 82 80 82 75 103 77 59 88 100 75 67 72 82 88 80 64 64 70 54 38 51 62 77 64 75 72 67 70 75 64 62 72 67 67 67 
59 57 59 64 82 64 62 67 67 59 54 49 75 62 67 67 59 57 77 59 67 75 70 88 77 67 64 70 88 77 75 75 100 72 82 75 64 95 72 70 93 103 93 70 82 77 77 80 72 77 90 85 111 100 98 116 108 98 95 95 111 88 93 77 123 111 95 90 121 95 113 80 126 100 98 88 88 118 129 105 
172 141 159 162 157 164 134 152 134 121 103 123 121 113 129 105 105 108 126 113 113 98 152 113 82 121 100 95 116 100 93 98 82 75 111 98 90 80 67 88 95 75 70 62 72 80 72 62 77 90 80 54 67 85 72 77 72 75 82 80 70 80 64 44 54 59 67 57 51 62 54 51 72 82 67 57 64 62 44 44 
51 41 67 62 59 77 51 80 64 64 67 72 59 59 49 75 59 57 57 51 70 72 72 72 62 59 62 64 90 75 75 72 77 88 75 70 64 64 70 70 70 82 72 82 72 62 72 88 105 100 88 111 103 118 95 85 111 85 90 95 77 105 98 95 98 95 95 105 90 111 118 90 116 80 90 100 95 108 105 116 
167 141 172 174 174 159 157 152 141 164 129 131 136 123 141 126 105 126 123 116 129 103 103 103 100 98 129 98 108 111 103 88 85 95 82 105 98 88 90 80 88 77 88 62 67 70 77 70 80 111 77 75 72 80 77 72 70 67 80 67 64 54 41 57 59 59 51 62 62 49 62 51 67 77 72 75 72 62 70 62 
49 49 70 72 75 62 62 64 54 54 57 67 46 64 51 57 75 57 57 59 77 77 80 70 82 54 57 67 72 70 75 80 85 72 88 90 62 85 72 77 77 88 64 75 67 85 70 72 103 103 93 80 98 121 93 100 77 85 85 98 100 95 95 85 95 77 103 93 85 105 103 105 90 103 90 113 113 108 111 116 
157 187 146 157 159 159 154 157 141 146 121 129 131 121 126 118 105 116 121 118 126 126 111 98 98 113 113 100 111 93 85 98 72 103 98 88 77 88 88 88 70 72 88 75 80 59 90 80 82 108 88 67 75 62 59 72 72 70 59 70 59 75 72 64 54 54 57 72 57 54 70 59 72 77 62 41 70 59 59 57 
64 57 72 59 64 70 67 75 57 46 67 54 64 67 62 59 70 54 59 64 67 72 70 80 70 70 59 67 72 70 77 72 93 103 67 72 80 67 80 72 90 95 80 85 59 82 85 85 100 95 85 90 98 98 100 98 90 111 103 111 93 100 105 95 118 98 103 113 93 103 108 111 108 85 111 111 108 95 93 116 
172 154 159 182 187 154 144 152 134 149 144 136 123 111 129 116 100 116 123 121 116 108 123 105 93 103 111 90 108 95 93 95 80 88 85 80 82 85 85 88 85 85 75 62 67 75 72 72 72 75 77 57 49 77 64 64 59 54 62 46 49 44 49 46 64 49 54 54 57 67 59 62 46 67 75 57 70 67 49 51 
67 62 59 49 54 57 46 67 59 51 59 59 54 51 57 49 57 51 67 62 70 67 77 59 67 57 62 70 70 88 57 67 93 72 75 75 64 70 72 62 88 67 72 75 72 95 100 95 82 105 100 100 88 103 108 100 93 85 72 90 100 88 85 98 100 88 90 90 95 93 88 121 105 113 113 98 113 116 118 116 
197 164 179 167 172 144 139 159 146 126 136 131 146 126 111 123 131 129 123 108 95 82 105 105 98 100 93 111 108 103 105 98 75 90 88 90 72 62 70 70 82 82 75 64 75 67 57 57 49 57 51 67 54 51 57 49 57 54 49 57 28 20 31 41 57 49 62 49 51 67 67 80 54 64 72 54 75 64 67 57 
57 54 54 49 70 57 57 67 67 38 49 51 54 67 59 75 54 57 59 62 57 67 72 54 54 54 67 72 75 82 88 82 80 75 70 64 67 72 75 62 85 80 72 72 67 82 77 82 103 105 80 88 80 113 88 85 98 108 93 98 82 93 111 90 108 85 90 93 100 103 90 88 95 108 100 108 118 116 118 116 
200 187 174 169 149 152 146 164 152 146 141 134 131 126 139 118 113 146 129 113 118 108 111 95 98 123 85 95 100 113 111 121 105 80 80 75 64 70 59 54 59 75 90 70 82 75 64 38 54 49 49 46 41 54 38 36 26 23 26 26 2 0 15 41 57 51 57 51 62 44 64 72 44 67 62 57 57 41 49 49 
54 54 72 57 72 51 51 51 51 51 59 51 44 57 64 62 46 41 64 57 49 54 62 62 57 54 59 64 57 64 72 62 77 57 67 75 70 75 90 77 72 85 75 75 70 82 82 95 98 98 93 77 95 103 103 93 111 85 85 85 95 90 82 82 95 103 88 98 75 98 111 93 108 98 108 111 108 113 118 134 
202 179 179 182 167 154 146 152 146 129 157 146 123 131 118 118 129 116 118 108 100 118 113 88 80 93 100 108 108 103 103 100 75 82 62 51 70 57 62 51 46 51 23 46 72 41 36 41 46 31 20 7 33 44 33 23 26 23 23 23 20 23 31 38 54 41 44 49 77 54 51 57 51 46 51 33 51 51 38 41 
64 41 51 62 64 44 49 75 44 59 49 62 46 49 51 46 49 57 62 67 62 77 62 57 64 44 64 70 95 72 75 67 85 64 85 67 57 70 72 62 82 95 75 85 82 103 98 111 82 90 77 57 98 108 90 103 88 100 88 98 80 80 90 93 82 93 100 95 95 95 111 88 77 75 95 85 82 108 108 80 


