P2
80 60
999
538 540 535 523 488 473 475 467 427 430 407 381 384 397 379 351 346 280 221 177 112 107 65 86 86 117 127 114 120 133 151 153 138 143 135 169 156 169 153 164 164 148 166 143 148 146 148 153 127 125 133 127 114 135 114 125 125 117 109 109 109 81 96 81 57 60 42 26 44 65 81 52 73 52 60 63 83 55 70 76 
76 76 112 112 104 99 94 109 107 102 102 96 91 78 76 102 81 63 57 63 57 63 86 78 68 76 60 73 83 70 65 68 70 78 76 102 78 78 94 135 112 133 135 135 140 127 114 107 99 117 120 133 122 120 109 130 130 114 117 135 146 146 130 133 146 135 138 140 169 138 127 146 133 130 140 117 114 138 140 138 
560 552 535 513 530 500 510 450 430 419 417 399 394 399 359 354 328 290 264 172 130 107 78 109 104 96 125 133 135 130 151 156 159 140 151 177 159 182 164 161 164 156 161 156 148 148 146 146 146 133 133 114 114 120 117 120 117 120 102 78 102 89 96 73 63 57 47 18 50 60 73 81 52 68 50 42 76 52 76 68 
76 104 107 104 99 86 99 120 104 99 91 94 89 86 78 78 81 60 70 76 63 68 73 78 78 65 65 63 63 78 70 73 81 60 65 94 99 76 91 109 122 130 127 135 127 102 122 114 102 125 125 120 125 112 135 112 133 112 172 153 159 146 148 153 127 156 140 146 151 143 140 143 130 133 125 138 140 166 146 138 
560 580 567 520 523 503 505 470 447 427 424 397 384 374 376 351 328 290 262 208 138 91 73 86 102 83 127 130 125 117 122 133 143 159 153 174 143 166 166 151 156 151 148 153 146 153 151 138 146 140 127 107 120 138 117 114 102 102 96 96 122 73 96 78 68 52 55 23 50 68 83 57 47 42 50 36 57 52 52 70 
73 104 117 114 83 94 86 104 109 107 86 70 81 83 52 73 83 68 65 70 60 73 73 70 70 65 76 86 63 73 57 60 78 65 73 109 68 65 94 127 125 122 125 91 133 125 133 130 130 120 133 112 125 127 133 102 130 133 109 159 125 140 133 127 140 133 140 138 161 156 125 122 156 117 140 138 143 156 146 130 
577 570 562 548 567 515 505 475 457 445 450 422 404 407 376 341 361 316 290 205 133 122 99 94 76 120 117 135 135 146 159 140 164 148 156 156 166 166 161 169 166 159 153 161 153 148 135 146 138 127 109 112 114 125 127 125 117 102 120 96 112 91 102 68 50 68 60 52 57 86 76 50 55 39 57 36 65 39 65 52 
81 70 107 104 102 99 104 104 91 91 91 94 86 81 81 81 96 60 60 52 57 55 60 70 73 57 68 76 68 65 78 65 91 83 78 89 78 68 102 135 120 109 104 127 140 138 133 114 114 138 120 122 140 148 122 130 127 127 130 130 148 161 156 161 156 159 138 138 151 148 146 164 146 148 143 122 146 159 133 135 
592 562 567 565 555 538 540 455 460 440 457 440 407 397 386 361 338 321 280 236 146 86 73 91 70 96 135 130 125 127 153 148 143 159 151 140 138 159 140 140 138 159 148 140 146 153 138 135 130 133 133 117 109 102 125 117 102 107 96 109 102 96 83 55 44 47 31 34 57 81 44 36 50 60 55 52 60 26 55 50 
68 86 94 107 107 83 91 109 102 83 86 94 91 78 70 65 91 63 57 52 57 60 63 52 60 73 65 50 60 47 36 63 81 63 81 102 73 91 122 112 117 117 114 138 143 114 104 114 125 130 140 125 120 125 122 125 135 120 125 135 138 125 146 138 161 138 153 143 177 135 151 135 138 143 133 125 146 148 112 122 
582 572 585 575 552 555 538 498 475 475 467 440 432 414 402 384 351 333 290 267 161 130 102 89 83 102 127 117 143 133 153 153 146 130 146 156 159 151 143 135 166 153 164 153 138 161 146 127 130 127 125 122 120 117 107 107 99 114 122 96 99 107 114 73 65 42 47 36 76 99 65 36 50 60 57 47 60 31 63 60 
52 86 91 107 91 102 107 99 107 89 83 109 91 83 91 73 68 76 63 63 42 60 47 70 60 68 81 55 76 55 55 86 63 78 91 117 109 99 112 117 107 125 102 109 135 125 133 109 127 140 143 120 133 140 138 138 148 125 130 135 122 148 122 151 151 148 125 127 190 159 140 146 146 140 125 138 130 125 114 156 
617 619 587 624 575 548 548 500 510 473 455 442 427 430 399 384 371 336 326 254 161 130 99 91 76 102 130 133 135 138 130 172 148 146 148 159 153 148 151 140 135 133 151 143 153 133 130 120 127 122 112 117 112 125 120 107 109 99 107 89 102 81 91 76 52 55 57 63 76 55 36 15 39 39 39 39 47 29 47 57 
52 81 94 109 83 78 91 99 102 104 89 86 94 83 76 81 78 63 65 60 47 52 57 50 73 65 76 65 63 68 55 70 81 114 104 135 120 104 114 102 120 102 107 122 109 125 112 140 138 127 133 133 127 140 148 122 122 122 122 153 151 133 146 153 169 159 156 151 190 174 151 143 138 156 153 109 140 130 130 125 
609 597 582 597 572 562 555 533 483 483 462 450 417 412 417 392 366 331 321 277 187 125 91 86 78 102 133 120 122 122 146 143 143 153 156 159 166 140 143 164 125 133 153 146 148 148 133 114 112 133 122 120 112 112 107 107 112 96 96 78 83 78 91 55 50 44 47 55 94 65 57 29 47 31 42 39 50 34 52 52 
57 55 89 96 91 78 86 81 96 109 78 83 94 73 76 52 78 78 68 39 76 47 36 52 52 70 73 52 60 52 52 73 86 114 107 112 114 99 104 99 112 120 96 117 125 125 117 112 120 135 127 125 130 130 151 120 127 127 151 130 143 151 146 138 151 133 143 146 169 117 146 120 138 169 161 143 138 143 138 138 
619 634 619 666 607 597 550 540 510 495 462 450 432 435 394 374 364 351 318 272 205 133 107 99 94 91 130 120 120 125 148 133 148 153 143 146 169 164 138 127 135 140 159 148 135 138 127 127 143 135 109 107 96 99 94 91 114 107 104 89 96 83 73 76 63 68 63 47 76 39 47 42 36 65 31 44 44 34 55 57 
76 65 94 94 91 81 94 99 83 96 81 89 99 76 86 60 81 73 60 50 42 47 36 57 47 34 60 47 55 50 60 65 81 109 94 133 107 114 114 120 99 102 127 107 114 114 114 122 140 130 135 130 140 130 127 125 138 143 143 138 130 156 153 151 130 138 143 140 169 146 138 120 120 143 148 138 138 143 138 122 
644 641 622 622 594 597 577 533 510 543 480 450 440 432 407 381 374 361 346 277 221 164 99 89 107 76 112 112 130 127 151 140 159 138 138 164 151 148 127 138 130 140 140 148 166 133 117 135 140 143 125 112 117 114 109 86 109 104 91 78 104 86 78 60 60 70 78 73 63 39 42 52 31 36 34 31 50 13 42 50 
55 68 99 89 94 78 76 89 94 76 73 94 86 78 94 78 81 70 47 39 47 34 31 42 42 55 52 68 42 50 57 55 65 96 94 104 130 94 104 114 107 109 117 107 117 96 102 109 107 112 130 117 120 122 133 122 138 130 143 133 135 133 151 138 130 151 143 140 138 138 114 125 143 135 130 127 138 117 122 140 
656 656 617 636 612 617 594 587 538 525 485 452 455 427 407 386 364 381 346 285 229 169 104 73 89 104 112 117 114 94 122 135 130 138 156 151 130 151 133 127 146 148 143 143 146 133 127 114 130 114 99 107 120 120 104 104 104 99 102 81 99 91 68 83 73 73 83 68 55 36 34 31 63 31 42 36 50 50 55 57 
57 68 76 81 83 78 91 89 94 94 78 91 104 83 86 86 78 57 47 44 55 26 29 50 42 44 42 47 57 57 44 76 86 94 112 125 127 114 122 104 114 130 107 122 130 117 120 143 120 153 143 122 140 140 151 146 151 138 138 153 153 146 148 164 146 156 143 140 138 109 117 122 120 133 143 135 148 133 135 127 
664 641 634 624 607 604 612 562 550 523 483 462 452 445 414 419 384 361 354 331 252 192 107 91 83 73 114 125 122 99 138 140 138 138 138 153 146 151 143 135 135 120 138 146 135 148 107 125 109 120 112 112 125 117 86 89 104 99 91 81 89 81 65 70 50 76 81 52 55 34 18 42 44 36 31 31 50 42 52 50 
39 63 81 89 76 65 81 109 94 89 91 83 89 73 81 63 73 73 50 68 36 29 23 21 47 36 68 55 50 81 78 81 96 99 104 122 109 122 109 107 114 125 127 114 104 117 135 127 153 117 143 135 133 135 127 133 130 135 146 143 135 156 130 133 125 133 127 125 81 107 130 127 117 120 117 99 114 120 112 122 
669 664 654 656 627 649 624 575 555 533 503 488 457 450 445 407 399 381 359 331 264 182 94 104 76 94 114 125 125 117 135 135 138 130 127 140 127 146 146 125 148 127 130 135 135 130 109 109 102 125 83 120 83 102 109 99 83 78 83 78 78 78 68 68 68 81 63 15 42 44 44 36 26 39 21 26 21 36 65 42 
36 52 73 76 73 83 89 94 86 83 70 86 86 91 76 76 57 76 39 50 42 50 36 47 65 47 86 78 94 107 127 114 104 109 104 114 127 117 125 127 109 117 133 114 125 107 120 130 125 133 140 127 143 159 122 140 159 138 122 138 151 146 148 153 125 125 114 130 125 120 109 143 140 122 104 133 109 140 127 127 
683 676 659 661 651 641 629 582 562 540 498 483 460 447 432 407 399 366 361 321 257 179 112 96 57 109 96 120 114 112 125 120 112 135 122 130 127 140 135 125 117 125 140 135 135 120 117 117 117 104 86 89 81 102 91 70 86 89 68 73 70 81 83 73 68 76 39 29 44 29 26 34 29 26 18 10 36 34 42 63 
26 52 70 78 78 57 57 81 78 76 102 86 78 76 73 89 57 57 39 63 60 42 47 68 65 86 96 96 122 107 96 114 112 83 114 122 135 114 122 130 125 127 125 125 135 117 130 122 125 130 146 138 146 127 130 127 133 133 125 140 135 146 104 114 133 117 120 112 146 159 125 120 117 109 109 117 99 102 114 127 
703 688 691 703 686 656 622 585 582 543 528 500 495 470 440 402 404 386 374 361 280 218 133 114 68 94 86 102 112 117 120 117 104 127 135 135 120 138 127 138 133 135 125 122 125 133 99 91 94 120 89 102 76 89 107 83 104 73 73 55 65 70 57 68 68 65 55 29 18 23 15 21 18 42 31 26 47 34 50 44 
34 73 76 86 78 55 86 81 86 91 102 107 94 89 68 94 86 55 44 65 60 65 89 102 109 107 102 96 112 104 114 127 127 130 109 122 133 122 125 133 122 107 140 133 120 125 143 135 146 140 138 140 135 161 140 151 148 143 143 146 135 127 122 120 133 135 135 130 127 151 102 125 140 112 135 122 120 138 148 143 
737 703 735 703 683 688 649 634 587 575 550 503 498 478 437 422 414 392 371 354 305 229 148 140 81 63 107 117 122 102 99 112 109 117 122 151 138 122 120 127 153 120 133 122 133 112 102 107 91 94 76 81 83 91 89 83 94 73 73 78 76 73 60 81 70 68 39 39 42 44 55 42 21 42 29 29 50 34 31 34 
31 60 76 70 83 76 81 76 78 76 96 109 102 102 76 89 83 102 83 94 117 91 102 112 125 96 130 117 104 117 102 130 109 114 120 117 117 117 120 130 130 112 120 140 140 133 135 135 112 127 143 143 148 146 153 143 138 112 146 135 127 122 109 120 117 122 130 114 138 112 122 122 102 117 135 143 133 133 138 138 
769 720 747 720 696 710 654 631 575 565 575 523 500 500 465 445 440 422 389 371 333 231 177 135 78 86 96 89 94 96 122 120 114 120 112 138 122 122 135 120 125 120 117 135 114 120 104 96 94 78 86 83 78 73 99 68 68 57 73 60 68 73 76 63 60 55 31 39 52 50 29 36 36 29 26 13 29 0 18 44 
23 60 73 96 68 78 68 86 91 96 91 99 109 109 117 125 125 114 130 130 114 120 135 127 135 125 114 99 122 125 122 117 120 120 112 143 114 125 127 127 138 122 122 120 127 146 130 140 122 143 120 130 151 156 143 107 140 133 125 133 135 140 146 153 112 122 140 140 114 130 114 117 133 104 120 112 156 156 148 133 
764 735 745 730 737 696 681 639 609 582 567 543 503 498 462 457 447 427 422 402 336 277 203 143 55 60 127 99 112 107 78 102 99 102 99 122 91 99 135 109 130 112 122 122 109 86 99 91 76 63 76 63 65 70 63 73 78 76 70 50 63 70 70 70 47 31 31 44 42 21 36 21 21 34 13 36 15 13 50 39 
47 63 63 78 70 78 73 104 89 91 102 125 135 138 138 138 125 125 135 138 107 120 125 125 133 143 146 130 99 114 125 127 133 146 120 114 117 120 133 130 140 117 112 117 138 120 138 130 130 148 125 125 148 130 127 138 135 130 117 127 130 143 122 107 120 143 127 125 120 130 138 138 143 143 104 125 138 146 164 159 
767 757 742 754 745 740 693 659 634 619 572 538 520 505 475 457 447 455 435 407 356 305 208 203 86 50 96 102 94 104 102 104 125 104 117 130 96 133 120 120 99 138 125 109 102 127 89 91 86 76 76 86 76 83 81 83 57 63 70 57 68 63 73 65 57 73 65 29 39 47 36 57 26 39 34 34 47 23 50 39 
44 57 63 78 83 104 104 122 102 130 117 112 135 122 117 143 122 127 122 130 133 133 130 143 140 146 122 120 127 135 127 135 161 146 127 135 130 125 127 133 138 138 114 133 143 133 138 151 135 153 159 146 164 143 146 120 156 138 130 135 120 135 140 151 148 146 125 133 146 140 125 153 135 138 130 133 138 164 140 174 
788 771 762 788 762 793 742 688 669 604 612 565 570 515 490 485 467 488 445 432 371 311 226 192 112 94 109 99 94 99 125 112 104 107 109 117 102 99 99 109 112 94 112 109 107 102 86 76 89 73 73 81 63 68 78 70 73 86 81 65 70 81 73 70 65 50 50 34 36 21 55 44 44 65 8 39 55 52 50 57 
70 86 91 112 122 133 117 125 135 130 125 130 148 156 156 140 138 159 140 138 133 133 133 143 135 143 127 151 138 140 133 138 125 156 114 143 122 125 120 138 130 146 143 161 127 130 143 143 140 135 140 140 156 159 151 156 125 135 146 148 130 156 143 146 117 120 143 135 140 159 146 174 146 125 130 133 148 146 143 146 
796 781 786 793 812 781 749 730 673 641 644 575 565 555 508 498 503 475 455 460 381 328 288 234 153 112 107 86 107 94 102 81 94 96 96 94 107 138 109 114 107 112 114 133 99 102 94 107 73 96 78 76 47 109 83 91 73 91 83 76 76 76 70 68 57 36 42 55 23 60 60 50 47 55 36 73 65 68 83 89 
86 122 125 127 127 143 130 130 122 122 125 130 156 138 164 166 143 146 151 127 151 138 127 140 151 143 120 146 135 120 122 125 156 133 135 130 140 114 120 153 133 125 156 172 153 140 153 143 135 140 151 140 153 146 151 143 143 151 148 148 166 161 143 135 148 164 133 148 172 161 133 156 159 125 146 140 166 135 138 146 
815 767 817 796 817 774 771 737 706 671 661 619 560 570 538 515 520 513 467 442 424 376 290 231 156 112 99 70 104 86 102 109 112 96 99 104 102 138 122 112 104 94 91 91 114 86 107 102 76 114 76 70 60 91 70 60 65 73 83 63 78 70 81 96 68 60 78 60 70 78 65 81 73 83 73 91 104 96 117 107 
94 143 130 148 130 140 135 138 125 138 133 125 138 148 127 159 153 164 151 135 140 146 138 133 161 146 127 138 135 117 122 133 151 135 130 133 148 133 127 146 130 143 140 159 153 138 156 148 146 164 146 146 148 164 143 140 148 125 169 169 151 143 146 140 138 151 146 138 146 161 146 140 120 151 135 143 130 179 135 159 
817 822 815 853 822 858 793 779 745 713 669 629 609 585 607 562 567 508 525 493 447 364 313 262 179 125 109 96 102 78 91 91 122 94 94 94 114 125 120 127 120 112 91 83 89 96 89 107 89 94 81 96 70 104 78 78 86 76 86 73 65 91 73 94 73 57 86 96 99 96 89 89 78 107 107 120 117 107 133 127 
133 153 148 151 130 133 130 138 151 140 143 153 151 164 140 153 153 153 161 159 166 146 140 153 156 135 143 140 138 151 143 130 135 153 143 164 148 153 135 169 153 130 146 135 143 143 159 153 138 166 177 156 166 169 140 169 166 182 172 156 166 169 159 164 174 161 135 169 205 174 159 148 146 153 153 153 159 172 146 156 
810 822 841 844 851 839 817 791 771 723 708 649 627 612 565 565 565 530 520 493 427 404 321 280 200 153 109 99 114 78 109 109 127 109 91 102 94 133 122 91 114 89 109 86 96 78 89 86 83 73 78 81 76 83 76 76 81 86 78 94 76 99 96 104 86 96 94 102 91 86 94 117 102 107 96 114 91 104 117 120 
112 135 148 143 143 138 148 146 151 153 143 138 159 140 156 159 146 156 148 140 130 148 146 153 161 151 146 140 146 140 117 130 140 130 133 143 138 125 130 159 143 120 159 133 127 156 138 148 140 169 148 146 172 166 140 135 166 133 156 159 161 159 159 156 153 143 125 138 169 164 148 138 190 153 151 135 172 164 146 135 
863 849 877 858 844 856 844 817 788 759 706 673 636 624 575 552 582 548 490 508 473 435 356 293 249 161 138 94 89 91 99 127 120 99 112 122 89 120 120 120 117 99 102 73 83 114 86 102 89 89 91 81 78 91 76 76 99 89 86 68 91 104 89 117 125 107 102 96 99 96 99 120 117 133 96 127 120 125 122 125 
125 140 138 146 130 138 117 138 161 148 138 153 148 146 140 138 146 133 138 122 117 130 133 166 164 146 138 138 130 122 117 135 159 151 122 138 140 146 130 125 133 135 146 133 135 153 159 161 177 148 151 120 153 174 148 138 159 140 164 159 151 148 169 156 164 148 146 146 164 166 148 156 161 117 138 151 185 151 169 166 
892 889 882 892 894 877 902 863 834 781 764 696 664 622 634 602 572 562 545 530 488 450 389 338 257 216 156 99 89 109 114 117 117 91 122 120 102 109 114 112 117 102 99 91 107 107 133 117 102 96 89 70 73 91 86 89 78 96 102 83 96 107 114 102 91 96 89 112 94 99 120 99 109 117 117 135 125 130 127 120 
130 135 146 146 133 133 130 143 135 140 148 146 156 138 140 146 153 133 127 151 146 156 143 148 148 177 135 146 130 130 135 135 161 148 133 135 133 148 138 133 161 140 140 117 143 135 148 138 107 151 159 125 190 166 146 125 164 140 153 140 179 164 161 143 161 127 172 164 182 174 140 138 156 135 140 164 166 164 156 159 
928 889 904 911 885 882 882 887 853 810 805 742 723 666 656 634 602 592 557 572 528 462 402 369 290 249 200 117 140 120 117 130 120 96 130 138 114 125 117 140 127 125 127 107 99 104 112 114 91 114 99 83 68 86 96 107 96 89 112 81 99 86 102 114 112 112 104 107 99 99 99 109 130 104 104 120 120 135 130 127 
138 146 161 143 138 148 127 156 151 146 161 161 174 159 143 164 164 169 148 143 143 156 146 143 187 146 156 159 140 133 130 146 164 159 130 133 122 138 159 140 153 148 164 159 140 159 130 159 138 166 192 148 177 166 159 156 138 146 146 159 172 169 143 135 172 169 164 174 164 172 164 166 151 166 148 148 164 146 174 210 
918 885 899 904 906 909 911 914 865 839 796 776 730 691 659 654 612 590 543 552 533 495 422 417 328 270 208 153 130 125 117 125 122 109 130 117 138 120 135 114 122 107 107 109 117 102 104 107 104 94 102 91 102 86 102 99 91 107 104 91 91 89 99 99 114 96 104 94 112 117 112 127 102 125 122 125 125 120 140 138 
127 138 151 151 135 151 140 135 135 156 133 148 164 161 148 151 169 151 151 164 133 164 143 146 151 146 159 143 148 135 130 159 146 140 143 140 138 135 161 135 153 143 151 143 153 140 135 164 143 164 179 151 190 161 172 153 143 138 146 182 177 151 159 164 146 159 166 177 187 140 153 138 156 179 122 143 182 177 185 208 
947 877 935 988 947 959 947 916 892 844 829 788 759 710 715 649 646 617 592 562 540 495 465 430 346 270 272 164 151 99 112 109 135 112 120 120 127 138 127 112 125 114 133 114 122 104 94 114 89 109 81 96 89 83 94 104 99 91 99 86 99 94 120 102 109 102 127 125 120 114 125 148 127 127 102 122 140 143 127 146 
143 151 151 140 143 146 148 140 166 166 159 148 169 156 159 179 169 174 151 156 166 161 159 177 164 174 156 156 135 130 148 164 159 140 166 156 143 151 164 166 151 161 166 151 135 143 164 164 153 177 161 166 187 192 166 161 179 164 151 153 130 156 146 169 156 177 164 190 218 156 169 197 172 143 148 166 174 203 161 169 
959 933 952 999 969 976 973 923 914 880 853 822 759 742 723 666 631 629 580 585 550 515 475 475 379 323 270 223 153 120 104 120 135 125 135 138 138 133 159 125 112 114 125 107 112 117 99 138 104 109 104 99 96 102 104 104 102 83 112 96 83 112 107 107 109 117 104 112 109 122 127 102 112 120 114 130 130 127 130 138 
135 138 156 138 143 174 151 153 151 122 140 151 156 169 166 166 156 156 143 153 166 148 179 140 179 164 169 148 161 140 146 138 169 107 172 164 166 161 159 159 164 151 179 159 148 164 153 164 151 174 195 164 179 169 179 153 177 140 156 138 151 159 143 185 182 166 172 169 190 179 177 135 161 127 169 143 185 200 205 166 


