P2
80 60
837
721 654 635 620 594 534 531 468 414 345 273 271 246 248 241 253 231 248 256 231 238 231 223 231 263 205 195 205 203 180 185 178 157 160 155 147 127 170 165 183 233 236 268 337 360 389 355 402 347 370 407 370 402 379 387 372 365 397 360 362 345 342 357 345 347 330 308 273 288 263 266 263 233 213 200 195 167 175 180 188 
195 195 183 195 205 190 203 162 129 132 157 117 127 140 132 127 119 140 147 150 142 147 155 135 129 124 142 135 127 114 119 117 137 135 127 119 132 142 147 150 142 155 155 137 162 160 150 178 165 162 162 167 175 160 183 162 175 178 117 150 178 155 178 145 150 180 173 185 188 185 157 162 180 185 162 185 178 175 185 195 
719 669 688 649 630 553 565 505 439 399 362 298 263 258 210 231 231 231 213 231 208 216 228 228 238 205 210 226 195 175 178 167 170 170 160 145 155 132 142 175 213 228 253 303 360 384 355 377 360 394 384 372 360 370 382 387 362 365 357 355 337 345 352 360 337 313 323 283 273 276 251 243 228 183 213 185 178 157 180 183 
173 185 188 185 210 205 193 157 135 137 132 135 109 129 127 132 129 135 142 147 137 137 155 135 145 127 137 129 124 114 124 127 119 119 129 127 124 140 137 145 147 140 129 137 155 157 170 157 162 155 167 152 152 165 185 145 162 155 150 160 157 180 150 173 190 170 188 188 157 173 167 170 185 185 180 190 188 170 190 183 
735 678 726 676 673 611 620 575 497 439 372 362 315 276 233 248 246 221 200 221 241 223 221 218 238 231 226 241 213 190 198 170 155 175 147 135 145 165 152 150 188 236 243 308 330 384 365 367 367 357 360 352 384 360 374 374 365 372 372 342 360 350 360 342 330 347 313 300 273 276 241 248 256 195 228 195 162 165 175 180 
200 190 210 200 205 210 205 162 152 127 142 124 127 127 124 137 132 127 142 145 142 147 155 142 157 132 147 142 140 132 135 132 140 140 135 132 132 140 147 155 160 137 147 147 180 155 155 155 167 162 162 157 165 178 157 150 167 152 127 150 152 180 162 155 165 183 178 178 170 173 180 160 175 183 173 223 193 205 175 193 
742 721 712 695 728 649 628 599 529 463 444 372 342 323 268 246 190 263 208 213 243 233 238 223 205 236 218 248 228 218 208 203 155 175 165 150 165 150 145 165 147 208 233 276 328 365 370 352 352 372 362 357 389 377 387 370 362 377 345 352 360 340 362 365 333 328 286 263 278 248 248 243 238 213 185 216 160 175 190 193 
185 193 188 198 210 210 213 170 160 142 124 135 132 132 132 132 145 127 140 150 129 157 137 135 132 124 129 140 132 107 135 145 127 137 129 135 132 137 150 142 162 147 162 162 162 160 167 167 175 173 183 178 157 165 170 178 173 170 173 165 173 205 150 162 160 162 178 183 198 160 175 173 178 178 183 203 193 216 205 188 
752 750 709 738 750 697 664 630 582 517 485 439 424 345 320 281 246 241 231 223 241 221 231 190 231 216 216 218 221 203 200 203 160 162 157 180 170 137 145 132 173 200 208 266 305 362 360 377 342 374 365 355 394 355 367 365 352 355 345 352 352 340 345 335 330 325 313 271 261 271 248 238 231 218 213 183 175 183 190 183 
200 190 180 200 195 210 205 180 155 147 137 132 129 140 132 124 140 140 142 137 140 150 152 155 145 135 145 142 132 127 124 127 127 127 140 124 145 137 155 145 140 152 150 157 167 185 162 170 178 165 185 185 145 170 160 157 135 160 147 160 167 178 160 155 170 160 170 200 183 165 183 178 185 183 183 200 198 193 198 216 
764 716 733 714 740 704 707 666 604 546 485 480 424 404 318 310 241 213 236 223 198 200 216 205 216 205 205 233 203 188 198 160 165 137 162 140 165 147 142 122 152 188 218 253 288 335 340 352 337 337 355 337 337 340 387 342 355 340 345 355 337 320 337 362 328 305 291 253 251 231 238 213 228 180 203 183 170 175 173 183 
185 195 193 205 198 216 208 178 152 142 135 119 127 129 129 129 137 137 145 137 142 152 152 140 127 137 142 142 135 132 119 132 127 140 129 132 119 132 147 135 145 145 170 150 165 170 157 157 185 195 162 170 137 162 203 157 155 170 152 165 162 198 167 137 129 155 170 178 190 175 188 167 185 170 170 198 175 200 195 188 
750 731 726 742 769 714 742 702 642 611 558 527 453 444 365 345 268 246 246 218 198 200 233 208 208 190 216 216 205 200 178 175 162 155 129 147 157 147 122 135 157 175 193 223 243 308 330 347 342 342 347 313 350 345 372 345 365 357 335 320 345 320 325 335 300 310 276 256 263 236 223 216 203 233 200 190 183 175 165 185 
198 208 198 213 218 210 208 185 167 142 140 119 132 132 127 137 142 142 147 132 142 152 150 132 135 152 127 150 137 127 127 137 129 132 129 140 142 147 152 152 145 162 162 162 167 178 175 145 193 170 195 185 162 170 203 150 152 200 165 175 178 180 162 152 193 167 170 200 175 203 173 170 190 198 180 195 190 193 195 167 
726 714 709 728 740 742 757 712 661 661 611 572 524 458 416 372 291 246 263 198 216 190 205 213 226 195 226 210 183 193 183 175 160 137 155 157 147 140 122 129 145 147 157 226 251 303 308 340 323 362 350 337 330 345 357 370 335 330 335 323 305 315 347 298 310 288 276 261 248 236 226 205 221 210 178 185 170 180 165 173 
190 180 188 190 205 198 210 170 167 137 142 112 114 140 122 129 137 137 129 142 140 157 142 135 137 145 122 127 140 132 122 122 127 140 140 140 135 132 150 162 147 145 147 160 160 162 173 157 147 178 178 170 173 167 165 155 162 178 165 183 170 165 167 167 157 167 173 185 178 155 203 183 198 193 175 193 213 195 185 193 
742 719 735 731 750 716 769 728 702 657 623 608 572 527 441 384 315 281 223 223 203 165 170 188 190 190 205 205 195 183 178 180 157 142 150 157 150 132 124 119 132 109 145 195 221 278 278 305 291 328 320 313 325 340 328 337 315 320 295 288 318 278 313 300 266 288 268 251 238 223 203 173 193 183 162 178 155 167 183 178 
183 190 195 205 188 188 208 173 167 137 145 129 129 112 135 129 129 135 142 135 140 145 147 155 140 152 137 137 135 112 129 127 135 132 135 137 119 135 145 165 142 145 155 155 167 165 157 147 162 160 162 183 157 170 170 140 160 170 190 157 150 167 124 157 155 160 180 195 193 180 183 180 193 193 170 193 185 190 195 198 
735 738 742 731 745 754 752 764 745 709 649 664 592 551 453 431 315 281 256 233 213 178 190 195 195 210 210 228 183 193 188 173 162 142 137 135 135 147 127 107 114 127 142 178 200 236 263 310 295 352 340 318 325 320 337 340 347 337 310 323 295 293 330 295 276 273 246 246 233 218 203 210 178 167 165 165 157 167 162 183 
193 193 180 208 205 198 200 185 165 162 142 135 135 137 124 132 145 135 140 145 150 147 150 145 140 150 145 137 117 124 135 119 137 129 140 140 137 137 145 145 147 165 150 157 157 178 152 152 165 173 173 185 152 178 180 132 155 173 170 162 162 175 147 150 178 193 216 203 198 185 195 185 205 190 178 210 188 208 188 198 
721 723 750 747 771 764 766 773 752 721 714 693 649 599 505 436 360 291 251 231 203 183 203 190 193 190 213 213 198 165 165 173 173 142 124 127 142 140 122 127 117 114 145 165 180 198 216 286 291 325 315 320 303 295 337 295 298 320 291 308 291 283 300 286 268 276 251 233 233 213 210 185 195 147 150 167 162 160 175 173 
198 198 183 198 193 198 216 190 178 155 142 137 122 142 140 135 132 142 140 132 147 147 150 147 150 145 150 137 137 127 147 112 129 129 135 129 140 145 162 155 152 160 150 150 162 157 155 173 167 170 185 188 140 167 175 150 129 167 175 173 157 180 150 183 185 183 200 185 203 190 213 173 193 180 190 205 190 200 185 205 
728 721 738 726 752 764 785 764 750 733 740 714 685 611 522 478 367 300 266 226 226 178 200 188 193 170 190 190 190 200 193 170 173 173 157 127 142 170 97 109 102 92 94 157 147 190 193 268 261 286 283 308 298 271 310 305 303 298 266 261 268 266 293 263 273 248 233 216 213 198 195 185 165 165 150 160 170 162 155 165 
190 185 185 193 208 205 213 210 180 152 145 132 114 119 140 145 142 147 142 129 152 147 145 160 127 147 157 137 132 127 124 114 117 117 119 129 140 142 152 157 142 147 155 147 157 165 160 167 155 165 173 165 160 170 173 142 145 150 145 119 152 147 155 155 175 178 173 205 185 183 205 195 198 188 185 193 193 188 193 200 
723 721 747 754 778 761 799 759 769 747 740 771 721 669 536 473 372 330 261 248 231 162 188 195 193 167 173 190 173 183 170 173 152 135 135 137 157 162 142 129 107 97 89 112 137 185 165 208 216 251 278 268 293 261 305 253 261 273 251 253 263 231 246 251 243 236 218 226 193 183 180 203 162 145 147 157 162 167 165 170 
183 190 185 205 210 223 213 190 178 167 142 135 117 135 145 142 127 137 140 150 147 147 160 155 142 142 155 147 129 127 155 135 140 135 132 132 145 150 147 147 157 150 160 142 152 165 167 155 162 183 185 175 173 165 178 162 122 155 160 147 175 167 155 140 180 180 188 208 198 193 213 200 213 198 190 180 188 210 200 228 
738 723 750 738 735 759 783 795 807 757 773 797 723 676 577 514 409 365 266 223 203 173 170 193 180 188 185 185 157 200 162 157 145 157 145 140 140 155 124 127 104 117 107 109 137 155 135 170 165 203 243 236 251 246 256 263 236 243 241 241 253 208 246 243 231 236 188 210 195 167 150 178 170 160 157 175 162 180 165 170 
195 193 193 200 208 226 205 193 190 167 147 117 135 129 124 137 142 140 147 145 137 140 147 155 152 167 140 147 152 155 147 132 135 150 132 152 145 137 150 152 145 162 160 152 155 173 157 157 162 180 180 180 178 183 188 145 135 147 157 160 167 152 157 178 170 178 205 213 198 213 195 190 216 190 178 198 203 208 190 223 
745 719 745 735 771 773 778 788 797 811 809 788 776 719 623 543 419 372 288 213 210 178 175 175 205 198 195 190 142 183 200 185 152 147 165 147 135 165 122 132 114 89 107 94 102 124 84 152 135 142 173 193 190 241 251 243 231 251 233 223 246 200 233 223 210 210 188 198 167 160 147 188 170 162 178 160 162 160 157 173 
185 198 198 200 208 228 205 213 188 178 152 132 140 124 142 127 132 147 145 132 127 162 157 145 150 142 140 137 152 140 152 142 150 150 132 135 135 135 147 135 155 162 170 165 162 167 167 150 173 170 178 178 180 180 185 142 162 155 188 175 170 178 167 193 198 205 231 228 200 205 203 185 210 193 188 190 193 198 205 236 
712 728 735 754 759 764 785 785 818 830 809 788 795 733 657 568 439 352 288 238 200 165 173 195 198 190 180 185 162 145 155 167 170 170 162 155 142 129 122 94 99 89 104 97 92 109 89 124 71 104 155 162 147 147 185 241 188 218 213 200 210 193 200 223 180 221 190 188 180 165 157 170 180 178 170 183 140 162 180 157 
195 190 193 205 203 218 200 210 185 162 152 124 132 129 142 124 129 137 135 132 147 145 152 147 152 147 140 147 132 147 147 132 135 150 135 119 137 150 157 157 155 147 165 170 188 167 145 152 160 180 173 170 183 178 180 160 127 170 195 208 173 180 140 175 190 203 213 208 193 216 200 208 218 193 203 205 193 188 200 226 
716 726 728 745 752 761 773 790 821 809 807 807 816 728 673 555 451 382 300 233 185 147 147 155 170 157 183 165 160 150 147 152 142 160 145 135 152 129 117 114 97 92 89 89 66 81 31 94 38 54 104 79 89 129 150 183 178 178 162 165 162 165 195 190 180 183 170 185 162 167 178 167 178 185 170 170 157 173 157 185 
190 188 183 200 200 218 193 203 185 175 150 140 132 140 132 140 145 140 157 142 135 160 157 162 145 152 145 140 145 140 142 142 140 152 137 137 132 147 160 155 160 145 150 165 162 162 167 145 165 178 167 183 183 175 165 150 122 175 190 170 185 162 157 183 190 205 223 216 205 200 213 200 205 205 193 200 223 200 195 205 
714 709 723 735 742 757 771 792 811 826 818 821 814 742 681 599 456 370 310 218 188 152 162 142 165 170 178 195 157 157 152 119 147 157 180 150 160 142 127 119 89 119 71 114 92 86 56 81 56 48 84 66 81 74 99 135 92 129 145 132 150 175 195 165 157 145 155 167 157 157 170 142 170 173 185 173 173 185 183 175 
180 198 190 203 208 200 205 205 190 162 165 145 137 129 150 140 140 135 147 140 135 150 167 162 152 147 150 157 150 142 162 132 147 147 145 140 147 167 150 129 152 152 162 175 173 155 157 167 173 170 190 183 185 195 178 142 170 180 203 203 190 203 180 183 198 193 198 226 205 203 203 193 216 195 198 195 198 183 198 218 
747 704 702 735 735 764 776 795 809 809 837 833 807 759 688 604 483 379 295 216 190 162 142 150 165 173 195 198 157 127 135 140 140 162 160 150 147 132 114 122 97 86 112 86 79 117 81 69 48 33 76 61 69 46 69 66 79 84 107 129 157 183 170 157 150 142 147 175 165 162 170 152 160 180 185 178 170 178 178 185 
198 195 198 200 216 216 205 205 198 178 162 147 124 142 142 150 140 147 140 129 140 160 167 162 162 157 152 142 145 157 145 142 147 137 145 140 147 162 167 152 157 167 165 175 170 167 160 162 183 173 175 188 188 188 188 165 160 185 203 216 208 203 198 195 203 193 198 233 218 218 193 210 210 200 198 195 185 200 195 223 
704 702 700 704 752 745 742 778 795 788 809 816 797 754 683 580 471 374 283 210 193 155 145 145 185 178 173 175 170 142 142 145 137 160 150 142 145 129 129 104 84 92 51 76 71 94 43 66 28 61 59 74 46 28 76 64 61 66 107 140 145 167 145 155 152 140 162 150 157 152 155 157 167 175 170 178 155 167 170 193 
213 188 195 198 208 208 198 205 200 167 147 135 112 150 137 147 147 147 150 129 142 157 145 165 160 150 142 152 147 132 135 142 140 137 150 129 142 145 150 142 152 150 162 165 180 175 173 167 165 175 195 175 200 193 178 170 152 183 195 210 218 210 200 200 200 195 188 233 205 198 208 198 200 213 210 213 195 203 178 193 
704 688 702 723 754 733 750 773 807 816 807 821 792 742 652 570 471 372 288 213 193 160 147 150 157 162 170 175 157 142 142 140 140 135 132 119 152 165 119 109 107 102 76 84 74 86 56 66 54 81 79 54 48 20 54 43 69 81 104 132 147 155 155 160 155 145 162 145 155 145 152 157 165 185 173 180 178 160 178 183 
193 198 208 210 213 205 218 203 193 193 160 140 135 142 150 140 140 135 165 135 145 147 167 155 150 140 162 157 150 150 137 127 142 132 155 137 152 162 155 152 162 155 160 157 167 180 160 160 175 190 188 188 183 200 195 188 178 190 203 200 208 216 188 198 193 190 190 208 198 195 203 213 218 236 218 195 180 195 203 221 
712 731 716 726 723 754 747 776 807 780 818 802 795 742 652 582 449 365 266 216 170 167 142 155 150 155 152 145 145 140 129 142 157 127 129 117 129 132 127 117 127 89 89 76 79 79 43 92 41 46 54 41 23 33 51 66 56 81 107 142 129 132 140 173 173 152 173 157 155 147 152 155 152 185 170 175 173 167 167 180 
190 198 195 208 218 213 208 210 203 183 160 142 129 145 145 147 147 152 137 124 162 152 157 170 155 165 147 155 150 140 150 147 132 150 152 155 150 142 137 152 162 165 173 157 180 173 167 167 162 167 193 195 188 195 205 190 180 188 216 195 218 213 190 208 190 190 193 216 198 213 195 218 223 216 205 208 195 208 208 210 
714 707 726 716 719 757 752 771 799 807 773 802 771 721 637 548 451 328 268 213 188 170 173 147 150 150 157 160 129 127 135 114 124 132 127 127 99 137 107 109 86 92 66 79 59 89 56 84 36 36 59 59 51 41 51 56 41 92 104 119 117 132 129 147 170 152 167 162 170 155 160 152 155 183 170 167 170 170 167 185 
195 193 198 213 233 218 210 205 200 175 162 147 147 140 132 150 132 145 140 137 135 142 160 157 140 157 147 152 150 129 147 150 132 142 160 137 160 178 173 160 155 165 175 173 175 178 157 167 167 162 178 203 180 175 185 175 167 170 178 190 205 195 203 203 193 205 200 203 228 193 200 228 203 213 185 210 208 195 205 208 
702 707 702 690 723 738 750 771 795 790 780 764 735 704 608 531 414 342 273 210 173 122 160 142 165 135 145 162 117 104 104 117 122 119 114 107 112 97 89 102 81 64 64 74 54 76 43 66 31 23 28 51 13 15 46 48 43 79 92 124 129 142 145 142 155 160 165 178 193 155 152 160 142 175 193 175 173 157 170 175 
198 193 203 205 226 221 205 223 218 185 175 137 147 140 135 150 162 162 162 124 150 155 162 165 162 147 147 175 145 142 135 167 150 140 145 142 152 157 157 155 145 155 160 178 188 188 173 167 173 185 178 188 185 190 178 190 178 175 195 195 203 190 190 210 200 198 221 195 210 190 198 205 200 200 195 203 213 205 203 226 
723 678 721 731 728 750 742 788 807 802 780 783 747 683 606 527 409 342 263 198 162 137 135 137 157 137 142 129 124 122 114 135 122 114 109 94 102 109 74 86 94 84 81 69 74 99 59 79 15 25 38 48 48 38 66 41 48 71 102 124 145 145 152 162 175 157 160 165 175 155 167 157 160 190 183 205 183 160 180 190 
198 213 198 195 216 218 221 221 223 183 165 140 132 127 152 160 147 160 137 142 127 160 157 157 147 150 152 165 157 137 162 145 150 145 160 160 135 142 175 167 142 155 170 175 175 175 167 173 180 185 216 203 183 175 188 175 188 185 208 223 218 195 180 198 188 198 213 203 223 203 216 198 205 226 208 205 216 203 213 216 
709 716 704 693 714 735 759 776 778 771 790 776 735 688 587 505 397 335 238 185 170 155 150 137 127 152 145 147 114 117 137 122 119 114 112 92 79 92 76 74 94 81 79 81 79 102 48 43 25 38 41 46 18 25 48 48 51 66 102 127 140 145 150 155 145 147 145 157 152 157 160 150 183 180 178 183 183 157 162 180 
195 216 198 223 223 228 210 203 216 185 170 140 145 145 135 135 140 152 135 137 124 152 165 155 147 155 155 175 155 150 178 157 152 140 157 152 135 135 167 162 165 147 160 170 183 178 173 167 173 178 193 193 185 188 193 185 198 205 193 203 195 221 193 195 208 221 218 228 223 200 226 223 228 221 221 213 195 228 195 233 
688 707 719 707 714 733 747 761 764 776 771 752 740 681 577 510 409 313 251 175 165 140 142 124 132 117 129 135 124 114 109 109 104 94 94 92 99 94 79 79 71 74 79 71 81 74 48 81 46 33 43 28 18 28 41 38 48 71 107 122 137 152 145 145 135 140 147 165 165 155 157 155 140 185 190 173 162 162 147 188 
180 208 210 231 231 221 221 216 216 193 167 147 129 140 150 147 155 142 140 165 137 147 165 152 142 165 160 162 155 152 157 167 165 129 147 147 145 147 160 155 145 155 175 157 173 173 167 145 170 180 200 183 185 178 185 173 165 193 188 188 210 210 210 203 205 193 210 218 200 190 213 198 223 241 233 228 231 205 208 223 
690 709 702 695 716 723 750 771 764 776 778 771 709 657 584 490 377 325 228 160 160 145 132 119 124 124 129 132 127 129 92 107 109 102 107 79 81 92 71 71 71 59 66 76 89 56 41 59 64 54 56 15 13 36 31 25 61 81 99 114 122 140 150 140 155 129 145 162 157 150 167 145 152 173 200 200 180 167 183 193 
180 221 210 218 216 218 205 213 203 205 162 147 140 137 147 147 142 152 150 160 135 165 170 167 175 175 157 162 160 152 167 147 150 145 157 147 135 167 157 167 150 160 165 155 178 173 162 170 173 180 193 195 178 188 193 180 175 180 216 180 213 218 185 213 200 208 208 213 221 210 228 205 198 238 198 216 210 205 200 223 
693 704 690 712 712 731 726 747 764 764 761 740 714 673 584 510 387 305 233 162 152 117 112 129 119 129 132 160 132 97 127 94 109 104 97 79 84 71 69 56 69 61 74 64 59 43 38 46 56 38 23 33 10 31 25 33 36 56 94 119 129 127 122 137 155 147 132 157 165 150 152 140 155 180 190 183 193 178 170 185 
198 208 195 218 221 228 213 228 208 195 180 150 137 155 137 150 135 157 129 157 135 155 157 157 145 167 162 160 150 150 155 155 145 142 142 150 129 147 173 147 145 152 170 155 180 188 178 160 170 170 193 208 180 190 190 178 180 205 173 193 213 200 216 183 183 180 200 208 216 193 221 210 213 213 218 221 210 203 203 208 
702 685 695 673 709 728 750 754 761 747 759 759 719 661 592 488 387 300 241 170 109 102 117 122 132 109 132 162 81 94 124 97 129 109 89 64 97 84 69 51 46 66 51 61 48 46 36 54 31 33 18 0 18 15 43 41 36 43 61 112 114 119 135 145 147 147 132 147 178 162 145 150 152 165 180 173 190 160 167 193 
195 205 193 213 218 226 218 213 226 210 165 147 142 140 147 140 150 142 155 137 132 135 147 160 157 173 155 147 157 152 140 140 155 142 127 145 137 132 157 160 135 160 165 157 157 183 183 162 157 180 180 190 185 173 183 185 185 170 198 180 193 213 185 208 175 190 178 210 203 198 203 203 205 210 213 193 200 208 203 213 


